<svg width="18" height="19" viewBox="0 0 18 19" fill="none" xmlns="http://www.w3.org/2000/svg">
<path d="M1.56312 2.56334C1.66616 2.27027 1.98728 2.11621 2.28035 2.21925L2.5064 2.29872C2.96879 2.46127 3.36152 2.59933 3.67058 2.75098C4.00106 2.91313 4.28444 3.11288 4.49758 3.42478C4.70906 3.73426 4.79638 4.0738 4.83668 4.44608C4.85471 4.61273 4.86423 4.79719 4.86925 4.99994H12.8479C14.1116 4.99994 15.2492 4.99994 15.5821 5.43275C15.9151 5.86556 15.7849 6.5177 15.5246 7.822L15.1498 9.64056C14.9134 10.7872 14.7953 11.3605 14.3815 11.6977C13.9677 12.0349 13.3823 12.0349 12.2116 12.0349H8.2344C6.14271 12.0349 5.09687 12.0349 4.44707 11.3496C3.79727 10.6642 3.74984 9.93614 3.74984 7.72994V5.77868C3.74984 5.22372 3.74908 4.85231 3.71821 4.56715C3.68871 4.29464 3.63644 4.15857 3.56874 4.0595C3.5027 3.96286 3.40244 3.87254 3.17502 3.76095C2.93289 3.64214 2.60383 3.52548 2.10312 3.34944L1.90721 3.28056C1.61414 3.17753 1.46009 2.85641 1.56312 2.56334Z" fill="#E4E9FF"/>
<path d="M5.625 14C6.24632 14 6.75 14.5037 6.75 15.125C6.75 15.7463 6.24632 16.25 5.625 16.25C5.00368 16.25 4.5 15.7463 4.5 15.125C4.5 14.5037 5.00368 14 5.625 14Z" fill="#E4E9FF"/>
<path d="M12.375 14C12.9963 14 13.5 14.5036 13.5 15.125C13.5 15.7463 12.9963 16.25 12.375 16.25C11.7537 16.25 11.25 15.7463 11.25 15.125C11.25 14.5036 11.7537 14 12.375 14Z" fill="#E4E9FF"/>
</svg>
