<svg width="13" height="28" viewBox="0 0 13 28" fill="none" xmlns="http://www.w3.org/2000/svg">
<path d="M7.93279 6.66709C7.93279 6.95421 7.93279 7.89005 7.93279 9.21959H12.3397L11.8619 13.2945H7.93279C7.93279 19.5788 7.93279 28 7.93279 28H2.71755C2.71755 28 2.71755 19.6902 2.71755 13.2945H6.10352e-05V9.21959H2.71755C2.71755 7.60358 2.71755 6.45448 2.71755 6.13454C2.71755 4.61015 2.60683 3.88686 3.23128 2.7056C3.85605 1.52439 5.6183 -0.0369231 8.66627 0.000666019C11.715 0.039625 13.0001 0.343845 13.0001 0.343845L12.3397 4.6867C12.3397 4.6867 10.3929 4.15349 9.43736 4.34352C8.48307 4.53361 7.93279 5.14336 7.93279 6.66709Z" fill="#00215B"/>
</svg>
