<svg width="247" height="42" viewBox="0 0 247 42" fill="none" xmlns="http://www.w3.org/2000/svg">
<rect y="0.788086" width="40.4239" height="40.4239" rx="4" fill="#00215B"/>
<path d="M37.19 21C37.19 30.3767 29.5887 37.9781 20.212 37.9781C10.8352 37.9781 3.23392 30.3767 3.23392 21C3.23392 11.6233 10.8352 4.02197 20.212 4.02197C29.5887 4.02197 37.19 11.6233 37.19 21Z" fill="white"/>
<path d="M230.163 12.2332H246.895V14.4502H232.759V29.8933H230.163V12.2332Z" fill="#00215B"/>
<path d="M192.878 25.1184C192.878 24.0067 193.156 23.0783 193.711 22.3329C194.267 21.575 194.994 20.9813 195.89 20.5518C196.8 20.1096 197.836 19.7938 198.998 19.6043C200.173 19.4022 201.367 19.3011 202.579 19.3011C203.047 19.3011 203.464 19.3075 203.83 19.3201C204.209 19.3327 204.563 19.3517 204.891 19.3769C205.232 19.4022 205.573 19.4338 205.914 19.4717C206.255 19.5096 206.628 19.5538 207.032 19.6043V18.3348C207.032 17.4758 206.843 16.7683 206.464 16.2125C206.097 15.6567 205.643 15.2209 205.1 14.905C204.556 14.5766 203.988 14.3492 203.394 14.2229C202.8 14.0839 202.295 14.0145 201.878 14.0145C200.564 14.0145 199.352 14.1913 198.24 14.545C197.128 14.8987 196.093 15.3724 195.132 15.9662L193.958 14.0145C195.019 13.3702 196.206 12.846 197.52 12.4417C198.846 12.0248 200.299 11.8164 201.878 11.8164C202.838 11.8164 203.779 11.9427 204.702 12.1954C205.636 12.4354 206.47 12.8144 207.203 13.3323C207.948 13.8376 208.542 14.5071 208.984 15.3409C209.426 16.1746 209.647 17.1726 209.647 18.3348V29.8935H207.032V26.9375C206.578 27.5059 206.06 28.0049 205.478 28.4344C204.91 28.8639 204.31 29.2176 203.678 29.4956C203.047 29.7608 202.415 29.963 201.783 30.1019C201.152 30.2535 200.552 30.3293 199.983 30.3293C197.646 30.3293 195.878 29.8808 194.678 28.9839C193.478 28.087 192.878 26.7985 192.878 25.1184ZM199.983 28.1123C201.07 28.1123 202.042 27.9544 202.901 27.6386C203.773 27.3101 204.512 26.9059 205.118 26.4259C205.725 25.9458 206.192 25.4342 206.521 24.891C206.862 24.3478 207.032 23.8552 207.032 23.413V21.7455C206.186 21.6192 205.371 21.5497 204.588 21.5371C203.817 21.5245 203.148 21.5181 202.579 21.5181C201.645 21.5181 200.741 21.5813 199.87 21.7076C199.011 21.834 198.259 22.0424 197.615 22.3329C196.971 22.6109 196.453 22.9772 196.061 23.432C195.669 23.8867 195.474 24.4489 195.474 25.1184C195.474 25.8637 195.834 26.5522 196.554 27.1838C197.286 27.8028 198.43 28.1123 199.983 28.1123Z" fill="#00215B"/>
<path d="M173.328 29.8933H170.713V15.8903L166.374 25.0425H164.517L160.121 15.8903V29.8933H157.525V12.2332H160.898L165.445 21.4422L169.955 12.2332H173.328V29.8933Z" fill="#00215B"/>
<path d="M138.392 21.1202C138.392 22.4972 138.171 23.7478 137.729 24.8721C137.299 25.9964 136.674 26.9627 135.853 27.7712C135.044 28.5671 134.071 29.1924 132.935 29.6471C131.798 30.1019 130.528 30.3293 129.126 30.3293C127.749 30.3293 126.492 30.1019 125.355 29.6471C124.218 29.1924 123.239 28.5671 122.418 27.7712C121.61 26.9627 120.984 25.9964 120.542 24.8721C120.113 23.7478 119.898 22.4972 119.898 21.1202C119.898 19.7812 120.113 18.5369 120.542 17.3873C120.984 16.2251 121.61 15.2398 122.418 14.4313C123.239 13.6102 124.218 12.9723 125.355 12.5175C126.492 12.0501 127.749 11.8164 129.126 11.8164C130.528 11.8164 131.798 12.0501 132.935 12.5175C134.071 12.9723 135.044 13.6102 135.853 14.4313C136.674 15.2398 137.299 16.2251 137.729 17.3873C138.171 18.5369 138.392 19.7812 138.392 21.1202ZM135.796 21.1202C135.796 20.1096 135.644 19.1811 135.341 18.3348C135.05 17.4758 134.615 16.7241 134.034 16.0799C133.452 15.4356 132.745 14.9303 131.911 14.564C131.09 14.1976 130.162 14.0145 129.126 14.0145C128.09 14.0145 127.155 14.1976 126.321 14.564C125.5 14.9303 124.806 15.4356 124.237 16.0799C123.669 16.7241 123.233 17.4758 122.93 18.3348C122.639 19.1811 122.494 20.1096 122.494 21.1202C122.494 22.1308 122.639 23.0656 122.93 23.9246C123.233 24.771 123.669 25.5037 124.237 26.1227C124.806 26.7417 125.5 27.228 126.321 27.5817C127.155 27.9354 128.09 28.1123 129.126 28.1123C130.162 28.1123 131.09 27.9354 131.911 27.5817C132.745 27.228 133.452 26.7417 134.034 26.1227C134.615 25.5037 135.05 24.771 135.341 23.9246C135.644 23.0656 135.796 22.1308 135.796 21.1202Z" fill="#00215B"/>
<path d="M101.618 20.5706H99.4006V14.4502H94.095V27.6763H98.0742V29.8933H87.4819V27.6763H91.4801V14.4502H86.1744V20.5706H83.9574V12.2332H101.618V20.5706Z" fill="#00215B"/>
<path d="M65.753 21.1202C65.753 22.4972 65.532 23.7478 65.0898 24.8721C64.6603 25.9964 64.035 26.9627 63.2139 27.7712C62.4054 28.5671 61.4327 29.1924 60.2958 29.6471C59.1589 30.1019 57.8893 30.3293 56.4871 30.3293C55.1102 30.3293 53.8532 30.1019 52.7163 29.6471C51.5794 29.1924 50.6004 28.5671 49.7793 27.7712C48.9708 26.9627 48.3455 25.9964 47.9033 24.8721C47.4738 23.7478 47.2591 22.4972 47.2591 21.1202C47.2591 19.7812 47.4738 18.5369 47.9033 17.3873C48.3455 16.2251 48.9708 15.2398 49.7793 14.4313C50.6004 13.6102 51.5794 12.9723 52.7163 12.5175C53.8532 12.0501 55.1102 11.8164 56.4871 11.8164C57.8893 11.8164 59.1589 12.0501 60.2958 12.5175C61.4327 12.9723 62.4054 13.6102 63.2139 14.4313C64.035 15.2398 64.6603 16.2251 65.0898 17.3873C65.532 18.5369 65.753 19.7812 65.753 21.1202ZM63.1571 21.1202C63.1571 20.1096 63.0055 19.1811 62.7023 18.3348C62.4117 17.4758 61.9759 16.7241 61.3948 16.0799C60.8137 15.4356 60.1063 14.9303 59.2726 14.564C58.4515 14.1976 57.523 14.0145 56.4871 14.0145C55.4512 14.0145 54.5164 14.1976 53.6827 14.564C52.8616 14.9303 52.1668 15.4356 51.5983 16.0799C51.0299 16.7241 50.5941 17.4758 50.2909 18.3348C50.0003 19.1811 49.8551 20.1096 49.8551 21.1202C49.8551 22.1308 50.0003 23.0656 50.2909 23.9246C50.5941 24.771 51.0299 25.5037 51.5983 26.1227C52.1668 26.7417 52.8616 27.228 53.6827 27.5817C54.5164 27.9354 55.4512 28.1123 56.4871 28.1123C57.523 28.1123 58.4515 27.9354 59.2726 27.5817C60.1063 27.228 60.8137 26.7417 61.3948 26.1227C61.9759 25.5037 62.4117 24.771 62.7023 23.9246C63.0055 23.0656 63.1571 22.1308 63.1571 21.1202Z" fill="#00215B"/>
<path d="M18.8413 15.8147C18.1213 14.6146 17.2307 14.0146 16.1696 14.0146C15.2348 14.0146 14.5337 14.5578 14.0663 15.6442C13.6115 16.7306 13.3841 18.5433 13.3841 21.0824C13.3841 23.6216 13.6115 25.428 14.0663 26.5018C14.5337 27.5755 15.2348 28.1124 16.1696 28.1124C17.2307 28.1124 18.1213 27.5187 18.8413 26.3312V15.8147ZM18.8413 28.6998C18.1718 29.7862 17.2812 30.3294 16.1696 30.3294C14.3631 30.3294 13.0114 29.5336 12.1145 27.9419C11.2176 26.3502 10.7692 24.0637 10.7692 21.0824C10.7692 18.1138 11.2176 15.8273 12.1145 14.223C13.0114 12.6187 14.3631 11.8165 16.1696 11.8165C17.2812 11.8165 18.1718 12.3597 18.8413 13.4461V5.16553H21.4563V13.4461C22.1258 12.3597 23.0164 11.8165 24.128 11.8165C25.9345 11.8165 27.2861 12.6187 28.183 14.223C29.0799 15.8273 29.5284 18.1138 29.5284 21.0824C29.5284 24.0637 29.0799 26.3502 28.183 27.9419C27.2861 29.5336 25.9345 30.3294 24.128 30.3294C23.0164 30.3294 22.1258 29.7862 21.4563 28.6998V36.9615H18.8413V28.6998ZM21.4563 26.3312C22.1763 27.5187 23.0669 28.1124 24.128 28.1124C25.0628 28.1124 25.7576 27.5755 26.2124 26.5018C26.6798 25.428 26.9135 23.6216 26.9135 21.0824C26.9135 18.5433 26.6798 16.7306 26.2124 15.6442C25.7576 14.5578 25.0628 14.0146 24.128 14.0146C23.0669 14.0146 22.1763 14.6146 21.4563 15.8147V26.3312Z" fill="#00215B"/>
</svg>
